<!DOCTYPE svg PUBLIC "-//W3C//DTD SVG 1.1//EN" "http://www.w3.org/Graphics/SVG/1.1/DTD/svg11.dtd">
<!-- Uploaded to: SVG Repo, www.svgrepo.com, Transformed by: SVG Repo Mixer Tools -->
<svg fill="#E5E7EB" version="1.1" id="Capa_1" xmlns="http://www.w3.org/2000/svg" xmlns:xlink="http://www.w3.org/1999/xlink" viewBox="-83.16 -83.16 463.32 463.32" xml:space="preserve" width="197px" height="197px" transform="matrix(1, 0, 0, 1, 0, 0)rotate(0)" stroke="#E5E7EB">
<g id="SVGRepo_bgCarrier" stroke-width="0" transform="translate(0,0), scale(1)">
<path transform="translate(-83.16, -83.16), scale(28.9575)" fill="#374151" d="M9.166.33a2.25 2.25 0 00-2.332 0l-5.25 3.182A2.25 2.25 0 00.5 5.436v5.128a2.25 2.25 0 001.084 1.924l5.25 3.182a2.25 2.25 0 002.332 0l5.25-3.182a2.25 2.25 0 001.084-1.924V5.436a2.25 2.25 0 00-1.084-1.924L9.166.33z" strokewidth="0"/>
</g>
<g id="SVGRepo_tracerCarrier" stroke-linecap="round" stroke-linejoin="round" stroke="#CCCCCC" stroke-width="1.782"/>
<g id="SVGRepo_iconCarrier"> <g> <path d="M237.333,33h-50.14c-2.558-18.613-18.556-33-37.86-33s-35.303,14.387-37.86,33h-51.14C50.408,33,42,41.075,42,51v228 c0,9.925,8.408,18,18.333,18h177c9.925,0,17.667-8.075,17.667-18V51C255,41.075,247.258,33,237.333,33z M93.052,48 c3.432,18.033,19.084,31,38.092,31h36.379c19.008,0,34.66-12.967,38.092-31H223v216H75V48H93.052z M149.333,16 c10.456,0,19.242,7.259,21.601,17h-43.201C130.091,23.259,138.877,16,149.333,16z"/> <rect x="99" y="109" width="50" height="15"/> <polygon points="200.689,105.076 189.645,94.924 175.427,110.39 169.237,105.347 159.763,116.976 176.907,130.944 "/> <rect x="99" y="157" width="50" height="15"/> <polygon points="200.689,153.076 189.645,142.924 175.427,158.39 169.237,153.347 159.763,164.976 176.907,178.944 "/> <rect x="99" y="205" width="50" height="15"/> <polygon points="200.689,201.076 189.645,190.924 175.427,206.39 169.237,201.347 159.763,212.976 176.907,226.944 "/> </g> </g>
</svg>